<svg viewBox="0 0 24 24" xmlns="http://www.w3.org/2000/svg">
  <path fill="#0D96F6" d="M8.8 14.27l-1.87 3.24a.84.84 0 0 1-1.15.31.84.84 0 0 1-.31-1.15l.88-1.52h-2.1a.84.84 0 1 1 0-1.68h3.3l1.25-2.16-1.87-3.24a.84.84 0 0 1 .31-1.15.84.84 0 0 1 1.15.31l1.25 2.16 1.25-2.16a.84.84 0 0 1 1.15-.31.84.84 0 0 1 .31 1.15L10.3 11.31l1.25 2.16h3.3a.84.84 0 1 1 0 1.68h-2.1l.88 1.52a.84.84 0 0 1-.31 1.15.84.84 0 0 1-1.15-.31L10.3 14.27 8.8 14.27z"/>
  <path fill="#0D96F6" d="M19.75 15.15h-2.1l.88 1.52a.84.84 0 0 1-.31 1.15.84.84 0 0 1-1.15-.31l-1.87-3.24h1.5l1.87-3.24a.84.84 0 0 1 1.15-.31.84.84 0 0 1 .31 1.15l-.88 1.52h2.1a.84.84 0 1 1 0 1.68l-1.5.08z"/>
</svg>