<svg viewBox="0 0 24 24" xmlns="http://www.w3.org/2000/svg">
  <path fill="#EA4335" d="M3.609 1.814L13.792 12 3.61 22.186a.996.996 0 0 1-.61-.92V2.734a1 1 0 0 1 .609-.92z"/>
  <path fill="#FBBC04" d="M17.556 8.235L14.852 12l2.704 3.765 3.132-1.794a1.001 1.001 0 0 0 0-1.742l-3.132-1.994z"/>
  <path fill="#4285F4" d="M3.609 1.814L14.852 12l2.704-3.765L6.445.365a1.06 1.06 0 0 0-1.042.003l-1.794 1.446z"/>
  <path fill="#34A853" d="M14.852 12L3.61 22.186l1.794 1.449a1.06 1.06 0 0 0 1.042 0l11.11-5.87L14.853 12z"/>
</svg>